<?xml version="1.0" standalone="no"?><!DOCTYPE svg PUBLIC "-//W3C//DTD SVG 1.1//EN" "http://www.w3.org/Graphics/SVG/1.1/DTD/svg11.dtd"><svg t="1628564102798" class="icon" viewBox="0 0 1024 1024" version="1.1" xmlns="http://www.w3.org/2000/svg" p-id="9313" xmlns:xlink="http://www.w3.org/1999/xlink" width="200" height="200"><defs><style type="text/css"></style></defs><path d="M848.600034 607.112619c-114.626162-249.029327-40.663531-328.88555-39.902011-329.749425 1.263059-1.266129 1.446274-3.323462 0.468785-4.914056-1.046066-1.522016-3.026633-2.136146-4.755406-1.41045-1.650984 0.646883-161.194544 67.306496-141.112524 215.081297-43.799683-39.442438-248.220724-241.840947-123.13492-479.872246 0.757426-1.450368 0.53941-3.256931-0.616176-4.490307-1.07882-1.258965-2.920184-1.656101-4.360316-0.975442-2.735945 1.092126-66.505058 28.455669-117.32833 97.533928-46.895917 63.620698-90.545139 176.151657-31.787319 350.278735 21.371691 81.912532-18.924386 148.350035-40.557082 176.548794 5.338828-19.44742 12.005199-52.375995 10.888508-90.151073-1.723656-55.309485-21.620413-131.729656-106.616896-181.176256-1.30093-0.759473-2.997973-0.692942-4.254891 0.249746-1.333684 0.976465-1.873094 2.533282-1.485169 4.121829 0.255887 1.44525 32.087219 146.949821-23.712546 214.256317-48.158976 58.125267-95.340463 159.196578-69.819307 252.860469 21.410586 78.299406 88.271838 138.081798 198.754676 177.602025 28.327726 8.745198 55.471206 15.393144 85.428421 21.004237 1.947813 0.433985 3.859801-0.759473 4.465742-2.605954 0.53941-2.018437-0.361313-4.07577-2.162758-4.880279-56.768042-24.678776-115.270998-76.055788-71.806015-180.45056 41.419933-89.978093 34.034008-136.346883 25.704371-156.241593 21.410586 12.074801 63.907292 43.491595 53.313566 98.650619-0.288641 1.627442 0.433985 3.323462 1.835222 4.116712 1.446274 0.868993 3.214966 0.758449 4.471883-0.289664 1.368484-1.049137 129.184091-106.531942 71.075201-235.789728 28.629672 16.59172 104.576964 74.501018 59.772156 207.416967-14.926406 57.189744 25.69823 98.255529 27.39425 100.023197 1.368484 1.305024 3.386922 1.556817 4.965233 0.473903 1.518946-0.942688 2.130004-2.934513 1.446274-4.69604-1.335731-3.580372-31.581586-85.388502 34.100539-130.57407-3.497465 21.009355-9.014391 72.945224 14.525175 101.28728 21.115804 25.521156 41.525359 67.317755 35.279666 108.159384-4.359293 28.706439-21.303113 52.917453-50.499831 71.902228-1.657125 1.182198-2.264089 3.212918-1.397144 5.058376 0.790179 1.84034 2.920184 2.642802 4.793277 2.057332 72.123315-23.959221 166.71147-71.461079 207.953306-162.12495C890.486706 778.489423 886.632022 698.388571 848.600034 607.112619L848.600034 607.112619 848.600034 607.112619zM848.600034 607.112619" fill="#bfbfbf" p-id="9314"></path></svg>